<svg xmlns="http://www.w3.org/2000/svg" viewBox="0 0 625.4 385.43"><defs><style>.cls-1{isolation:isolate;}.cls-13,.cls-2{fill:#6ca4f4;}.cls-10,.cls-2,.cls-4,.cls-7{opacity:0.3;}.cls-15,.cls-3,.cls-4,.cls-5,.cls-6,.cls-8{fill:none;}.cls-23,.cls-3,.cls-6{stroke:#fff;}.cls-15,.cls-3,.cls-4,.cls-5,.cls-8{stroke-miterlimit:10;}.cls-4,.cls-8{stroke:#6ca4f4;}.cls-5{stroke:#0e263f;}.cls-5,.cls-6{stroke-width:2px;}.cls-23,.cls-6{stroke-linecap:round;stroke-linejoin:round;}.cls-24,.cls-28,.cls-9{mix-blend-mode:multiply;}.cls-10,.cls-21,.cls-25,.cls-28{fill:#c1c1c1;}.cls-10,.cls-15,.cls-21,.cls-27{mix-blend-mode:color-burn;}.cls-11{fill:#0e263f;}.cls-12{fill:#84bef7;}.cls-14,.cls-23{fill:#fff;}.cls-15{stroke:#c1c1c1;stroke-width:8px;}.cls-16,.cls-17{fill:#ededed;}.cls-16{opacity:0.2;}.cls-18{fill:#ffaf99;}.cls-19{fill:#e88379;}.cls-20{fill:#8bc9e8;}.cls-22{fill:#ffa71a;}.cls-23{stroke-width:0.5px;}.cls-24,.cls-26{opacity:0.4;}.cls-27{fill:#9b9b9b;}.cls-28{opacity:0.5;}</style></defs><title>3886761</title><g class="cls-1"><g id="BACKGROUND"><path class="cls-2" d="M679,211.39a7.87,7.87,0,0,0-2.8.52,14.7,14.7,0,0,0-25.24-9.35C585,116.14,461.82,145.17,398.26,217.29c-2.33,2.64-7.76,13.34-10.72,14.66-5.43,2.41-4.07.37-8-3.85-11.08-12-16.1-31.51-25.06-45.33-17.51-27-47.84-46.05-80.66-44.28-31.36,1.69-52.2,19.89-70.28,43.63-8.61,11.29-17,22.74-22.41,36.09l-.15.38c-.54.24-1.08.5-1.62.79h0a43.63,43.63,0,0,0-6.95,4.5,3.15,3.15,0,0,1-.29.22l.3-.59.2,0,0-.26a114.62,114.62,0,0,0,8.84-23.66l.12,0-.05-.28a62.36,62.36,0,0,0,1.77-18.06c-.06-.84-.15-1.77-.29-2.73h0l-.06-.3c-.87-5.77-3.35-12.89-8.76-14.86v0l-.31-.05a8.73,8.73,0,0,0-2.4-.42c-3.15-.11-5.93,1.56-8.28,3.87l-.24.2,0,0a38.76,38.76,0,0,0-5.54,7.58,77.5,77.5,0,0,0-4.13,8.19l-.22.17.09.13a129.18,129.18,0,0,0-7,21.93L146,205l.13.18c-.57,2.46-1.1,4.92-1.61,7.38v-2.47l.44-.67-.43-.3q0-6.71-.21-13.39c-.18-5.27-.39-10.59-.73-15.91l.22-.22-.26-.28a176.65,176.65,0,0,0-4.47-31.21l.16-.15-.26-.28a110.3,110.3,0,0,0-3.74-12,52.73,52.73,0,0,0-5.79-11.49l0,0-.26-.3c-2.66-3.66-6-6.56-10.33-7.12a12.08,12.08,0,0,0-3.35,0h-.41v.08c-7.74,1.44-12.7,10.5-15.17,18.11l-.15.39h0c-.4,1.27-.74,2.49-1,3.62a85.05,85.05,0,0,0-1.67,24.8l-.13.37.16.06a156.52,156.52,0,0,0,6.61,33.95l-.13.35.26.09.27.87-.14-.16a61.17,61.17,0,0,0-8.57-7.85h0c-1.08-.82-2.18-1.58-3.28-2.26l-.18-.16,0,0c-5.31-3.22-10.69-4.48-14.75-1h0l-.22.11,0,.07c-2.59,2.41-3.47,6.49-3.51,10.38h0v.5h0a30.87,30.87,0,0,0,.49,5.16,44.86,44.86,0,0,0,3.38,10.43l-.06.26.2.05a73.46,73.46,0,0,0,10.7,16.45q-1.65,1.41-3.23,3C55.6,264.45,60.7,333.05,92.7,365.41H651.37c27.15-42,33.64-94.65,14.43-137.88l13.19,0h0a8.06,8.06,0,1,0,0-16.11Z" transform="translate(-61.66 -63.38)"/><path class="cls-3" d="M614.67,233.67c-23.42-15.42-35.89-6.31-48,6-12.79,13-25.33,35.37-42.67,16" transform="translate(-61.66 -63.38)"/><path class="cls-3" d="M558.25,232c-6.77,8.66-15.74,17.56-27,19.25" transform="translate(-61.66 -63.38)"/><path class="cls-3" d="M98,332.33c4.59-5.94,15.11-.31,20.66,2.19,9.56,4.29,17.47,7.74,26.67-.19" transform="translate(-61.66 -63.38)"/><path class="cls-4" d="M84.61,103c17.58-26,46.43-11.36,67.68,2.73,27.15,18,54.88,36.65,86.32,11.27" transform="translate(-61.66 -63.38)"/><path class="cls-4" d="M157.71,86.38c40.37,27.43,60.1,32.43,106.34,19.22" transform="translate(-61.66 -63.38)"/><path class="cls-4" d="M671,84c-24.23-12.82-41.18,16.93-58.67,28.67" transform="translate(-61.66 -63.38)"/><path class="cls-4" d="M659.67,106.33c-6.84-3.3-20.46,4.07-24,10" transform="translate(-61.66 -63.38)"/><line class="cls-5" y1="302.03" x2="625.4" y2="302.03"/><polyline class="cls-6" points="38.7 152.44 45.64 159.38 61.5 143.53"/><polyline class="cls-4" points="590.11 102.64 597.05 109.58 612.91 93.73"/><line class="cls-6" x1="580.31" y1="222.62" x2="596" y2="238.31"/><line class="cls-6" x1="596" y1="222.62" x2="580.31" y2="238.31"/><g class="cls-7"><line class="cls-8" x1="134.06" y1="7.49" x2="149.76" y2="23.19"/><line class="cls-8" x1="149.76" y1="7.49" x2="134.06" y2="23.19"/></g><path class="cls-6" d="M660,258.58a5.09,5.09,0,1,1-5.09-5.08A5.09,5.09,0,0,1,660,258.58Z" transform="translate(-61.66 -63.38)"/><circle class="cls-4" cx="12.4" cy="97.38" r="5.09"/><path class="cls-6" d="M95.78,308.79a5.09,5.09,0,1,1-5.08-5.08A5.09,5.09,0,0,1,95.78,308.79Z" transform="translate(-61.66 -63.38)"/></g><g id="OBJECTS"><g class="cls-9"><path class="cls-10" d="M580.65,388.23c0,5.07-98.35,9.21-219.62,9.25s-219.58-4-219.56-9.11,98.35-9.21,219.64-9.25S580.67,383.16,580.65,388.23Z" transform="translate(-61.66 -63.38)"/></g><path class="cls-11" d="M528.9,110.92,563.05,378s3.07,10.31-8,10.31H475.47c-5.09,0,29.44-208.23,29.44-208.23Z" transform="translate(-61.66 -63.38)"/><path class="cls-12" d="M485.29,385.34a3.64,3.64,0,0,1-3.47,3H161.61a2.48,2.48,0,0,1-2.53-3l40.21-252.93a3.64,3.64,0,0,1,3.47-3H523a2.49,2.49,0,0,1,2.53,3Z" transform="translate(-61.66 -63.38)"/><path class="cls-13" d="M528.9,110.92c.76-4.75-2.37-8.63-7.18-8.63H213a10.62,10.62,0,0,0-10.12,8.63l-2.83,18a7.24,7.24,0,0,0,7.36,8.64H516.13a10.41,10.41,0,0,0,9.93-8.64Z" transform="translate(-61.66 -63.38)"/><polygon class="cls-13" points="462.79 75.57 136.58 75.58 139.62 56.55 465.82 56.55 462.79 75.57"/><path class="cls-14" d="M493.32,115.14a4.74,4.74,0,1,1-4.74-4.74A4.74,4.74,0,0,1,493.32,115.14Z" transform="translate(-61.66 -63.38)"/><path class="cls-11" d="M500.36,102.29h-4.9a13,13,0,0,0-2.26-7.64l4-2.88A18,18,0,0,1,500.36,102.29Z" transform="translate(-61.66 -63.38)"/><path class="cls-15" d="M487,115.14c-6.39,0-11.57-5.75-11.57-12.85" transform="translate(-61.66 -63.38)"/><path class="cls-11" d="M500.36,102.29h-4.9a13,13,0,0,0-2.26-7.64l4-2.88A18,18,0,0,1,500.36,102.29Z" transform="translate(-61.66 -63.38)"/><path class="cls-14" d="M457.31,115.14a4.74,4.74,0,1,1-4.74-4.74A4.74,4.74,0,0,1,457.31,115.14Z" transform="translate(-61.66 -63.38)"/><path class="cls-11" d="M464.34,102.29h-4.89a13.05,13.05,0,0,0-2.27-7.64l4-2.88A18,18,0,0,1,464.34,102.29Z" transform="translate(-61.66 -63.38)"/><path class="cls-15" d="M451,115.14c-6.39,0-11.57-5.75-11.57-12.85" transform="translate(-61.66 -63.38)"/><path class="cls-11" d="M464.34,102.29h-4.89a13.05,13.05,0,0,0-2.27-7.64l4-2.88A18,18,0,0,1,464.34,102.29Z" transform="translate(-61.66 -63.38)"/><path class="cls-14" d="M421.29,115.14a4.74,4.74,0,1,1-4.74-4.74A4.74,4.74,0,0,1,421.29,115.14Z" transform="translate(-61.66 -63.38)"/><path class="cls-11" d="M428.32,102.29h-4.89a13,13,0,0,0-2.26-7.64l4-2.88A18,18,0,0,1,428.32,102.29Z" transform="translate(-61.66 -63.38)"/><path class="cls-15" d="M415,115.14c-6.39,0-11.57-5.75-11.57-12.85" transform="translate(-61.66 -63.38)"/><path class="cls-11" d="M428.32,102.29h-4.89a13,13,0,0,0-2.26-7.64l4-2.88A18,18,0,0,1,428.32,102.29Z" transform="translate(-61.66 -63.38)"/><path class="cls-14" d="M385.28,115.14a4.74,4.74,0,1,1-4.75-4.74A4.75,4.75,0,0,1,385.28,115.14Z" transform="translate(-61.66 -63.38)"/><path class="cls-11" d="M392.31,102.29h-4.89a13.05,13.05,0,0,0-2.27-7.64l4-2.88A18,18,0,0,1,392.31,102.29Z" transform="translate(-61.66 -63.38)"/><path class="cls-15" d="M379,115.14c-6.39,0-11.57-5.75-11.57-12.85" transform="translate(-61.66 -63.38)"/><path class="cls-11" d="M392.31,102.29h-4.89a13.05,13.05,0,0,0-2.27-7.64l4-2.88A18,18,0,0,1,392.31,102.29Z" transform="translate(-61.66 -63.38)"/><path class="cls-14" d="M349.26,115.14a4.74,4.74,0,1,1-4.74-4.74A4.74,4.74,0,0,1,349.26,115.14Z" transform="translate(-61.66 -63.38)"/><path class="cls-11" d="M356.29,102.29H351.4a13.05,13.05,0,0,0-2.27-7.64l4-2.88A18,18,0,0,1,356.29,102.29Z" transform="translate(-61.66 -63.38)"/><path class="cls-15" d="M343,115.14c-6.39,0-11.57-5.75-11.57-12.85" transform="translate(-61.66 -63.38)"/><path class="cls-11" d="M356.29,102.29H351.4a13.05,13.05,0,0,0-2.27-7.64l4-2.88A18,18,0,0,1,356.29,102.29Z" transform="translate(-61.66 -63.38)"/><path class="cls-14" d="M313.24,115.14a4.74,4.74,0,1,1-4.74-4.74A4.74,4.74,0,0,1,313.24,115.14Z" transform="translate(-61.66 -63.38)"/><path class="cls-11" d="M320.28,102.29h-4.9a13,13,0,0,0-2.26-7.64l4-2.88A18,18,0,0,1,320.28,102.29Z" transform="translate(-61.66 -63.38)"/><path class="cls-15" d="M307,115.14c-6.39,0-11.57-5.75-11.57-12.85" transform="translate(-61.66 -63.38)"/><path class="cls-11" d="M320.28,102.29h-4.9a13,13,0,0,0-2.26-7.64l4-2.88A18,18,0,0,1,320.28,102.29Z" transform="translate(-61.66 -63.38)"/><path class="cls-14" d="M277.23,115.14a4.74,4.74,0,1,1-4.74-4.74A4.75,4.75,0,0,1,277.23,115.14Z" transform="translate(-61.66 -63.38)"/><path class="cls-11" d="M284.26,102.29h-4.89a13.05,13.05,0,0,0-2.27-7.64l4-2.88A18,18,0,0,1,284.26,102.29Z" transform="translate(-61.66 -63.38)"/><path class="cls-15" d="M271,115.14c-6.4,0-11.58-5.75-11.58-12.85" transform="translate(-61.66 -63.38)"/><path class="cls-11" d="M284.26,102.29h-4.89a13.05,13.05,0,0,0-2.27-7.64l4-2.88A18,18,0,0,1,284.26,102.29Z" transform="translate(-61.66 -63.38)"/><path class="cls-14" d="M241.21,115.14a4.74,4.74,0,1,1-4.74-4.74A4.74,4.74,0,0,1,241.21,115.14Z" transform="translate(-61.66 -63.38)"/><path class="cls-11" d="M248.24,102.29h-4.89a13,13,0,0,0-2.26-7.64L245,91.77A18,18,0,0,1,248.24,102.29Z" transform="translate(-61.66 -63.38)"/><path class="cls-15" d="M234.93,115.14c-6.39,0-11.57-5.75-11.57-12.85" transform="translate(-61.66 -63.38)"/><path class="cls-11" d="M248.24,102.29h-4.89a13,13,0,0,0-2.26-7.64L245,91.77A18,18,0,0,1,248.24,102.29Z" transform="translate(-61.66 -63.38)"/><polygon class="cls-16" points="236.52 75.58 215.04 75.58 238.51 38.9 259.99 38.9 236.52 75.58"/><polygon class="cls-16" points="424.16 75.58 417.11 75.58 440.59 38.9 447.63 38.9 424.16 75.58"/><polygon class="cls-16" points="166.8 75.58 159.76 75.58 183.23 38.9 190.28 38.9 166.8 75.58"/><polygon class="cls-16" points="358.47 75.58 304.29 75.58 327.76 38.9 381.94 38.9 358.47 75.58"/><polygon class="cls-16" points="166.26 324.92 112.08 324.92 133.6 290.14 187.78 290.14 166.26 324.92"/><polygon class="cls-16" points="263.18 324.92 240.02 324.92 261.54 290.14 284.69 290.14 263.18 324.92"/><polygon class="cls-16" points="394.4 324.92 371.25 324.92 392.76 290.14 415.92 290.14 394.4 324.92"/><polygon class="cls-16" points="293.85 324.92 282.27 324.92 303.79 290.14 315.36 290.14 293.85 324.92"/><path class="cls-11" d="M488.58,117.58c-6.49,0-11.77-6.86-11.77-15.29S482.09,87,488.58,87a10.63,10.63,0,0,1,8.58,4.77,2.45,2.45,0,0,1-4,2.88,5.85,5.85,0,0,0-4.62-2.75c-3.73,0-6.88,4.76-6.88,10.39s3.15,10.4,6.88,10.4a2.45,2.45,0,1,1,0,4.89Z" transform="translate(-61.66 -63.38)"/><path class="cls-11" d="M488.58,117.58c-6.49,0-11.77-6.86-11.77-15.29S482.09,87,488.58,87a10.63,10.63,0,0,1,8.58,4.77,2.45,2.45,0,0,1-4,2.88,5.85,5.85,0,0,0-4.62-2.75c-3.73,0-6.88,4.76-6.88,10.39s3.15,10.4,6.88,10.4a2.45,2.45,0,1,1,0,4.89Z" transform="translate(-61.66 -63.38)"/><path class="cls-11" d="M452.57,117.58c-6.49,0-11.78-6.86-11.78-15.29S446.08,87,452.57,87a10.61,10.61,0,0,1,8.57,4.77,2.45,2.45,0,0,1-4,2.88,5.85,5.85,0,0,0-4.61-2.75c-3.73,0-6.88,4.76-6.88,10.39s3.15,10.4,6.88,10.4a2.45,2.45,0,0,1,0,4.89Z" transform="translate(-61.66 -63.38)"/><path class="cls-11" d="M452.57,117.58c-6.49,0-11.78-6.86-11.78-15.29S446.08,87,452.57,87a10.61,10.61,0,0,1,8.57,4.77,2.45,2.45,0,0,1-4,2.88,5.85,5.85,0,0,0-4.61-2.75c-3.73,0-6.88,4.76-6.88,10.39s3.15,10.4,6.88,10.4a2.45,2.45,0,0,1,0,4.89Z" transform="translate(-61.66 -63.38)"/><path class="cls-11" d="M416.55,117.58c-6.49,0-11.77-6.86-11.77-15.29S410.06,87,416.55,87a10.63,10.63,0,0,1,8.58,4.77,2.45,2.45,0,0,1-4,2.88,5.85,5.85,0,0,0-4.62-2.75c-3.73,0-6.88,4.76-6.88,10.39s3.15,10.4,6.88,10.4a2.45,2.45,0,1,1,0,4.89Z" transform="translate(-61.66 -63.38)"/><path class="cls-11" d="M416.55,117.58c-6.49,0-11.77-6.86-11.77-15.29S410.06,87,416.55,87a10.63,10.63,0,0,1,8.58,4.77,2.45,2.45,0,0,1-4,2.88,5.85,5.85,0,0,0-4.62-2.75c-3.73,0-6.88,4.76-6.88,10.39s3.15,10.4,6.88,10.4a2.45,2.45,0,1,1,0,4.89Z" transform="translate(-61.66 -63.38)"/><path class="cls-11" d="M380.53,117.58c-6.49,0-11.77-6.86-11.77-15.29S374,87,380.53,87a10.61,10.61,0,0,1,8.58,4.77,2.45,2.45,0,0,1-4,2.88,5.85,5.85,0,0,0-4.62-2.75c-3.72,0-6.87,4.76-6.87,10.39s3.15,10.4,6.87,10.4a2.45,2.45,0,1,1,0,4.89Z" transform="translate(-61.66 -63.38)"/><path class="cls-11" d="M380.53,117.58c-6.49,0-11.77-6.86-11.77-15.29S374,87,380.53,87a10.61,10.61,0,0,1,8.58,4.77,2.45,2.45,0,0,1-4,2.88,5.85,5.85,0,0,0-4.62-2.75c-3.72,0-6.87,4.76-6.87,10.39s3.15,10.4,6.87,10.4a2.45,2.45,0,1,1,0,4.89Z" transform="translate(-61.66 -63.38)"/><path class="cls-11" d="M344.52,117.58c-6.49,0-11.78-6.86-11.78-15.29S338,87,344.52,87a10.61,10.61,0,0,1,8.57,4.77,2.45,2.45,0,0,1-4,2.88,5.83,5.83,0,0,0-4.61-2.75c-3.73,0-6.88,4.76-6.88,10.39s3.15,10.4,6.88,10.4a2.45,2.45,0,1,1,0,4.89Z" transform="translate(-61.66 -63.38)"/><path class="cls-11" d="M344.52,117.58c-6.49,0-11.78-6.86-11.78-15.29S338,87,344.52,87a10.61,10.61,0,0,1,8.57,4.77,2.45,2.45,0,0,1-4,2.88,5.83,5.83,0,0,0-4.61-2.75c-3.73,0-6.88,4.76-6.88,10.39s3.15,10.4,6.88,10.4a2.45,2.45,0,1,1,0,4.89Z" transform="translate(-61.66 -63.38)"/><path class="cls-11" d="M308.5,117.58c-6.49,0-11.77-6.86-11.77-15.29S302,87,308.5,87a10.63,10.63,0,0,1,8.58,4.77,2.45,2.45,0,0,1-4,2.88,5.85,5.85,0,0,0-4.62-2.75c-3.73,0-6.88,4.76-6.88,10.39s3.15,10.4,6.88,10.4a2.45,2.45,0,1,1,0,4.89Z" transform="translate(-61.66 -63.38)"/><path class="cls-11" d="M308.5,117.58c-6.49,0-11.77-6.86-11.77-15.29S302,87,308.5,87a10.63,10.63,0,0,1,8.58,4.77,2.45,2.45,0,0,1-4,2.88,5.85,5.85,0,0,0-4.62-2.75c-3.73,0-6.88,4.76-6.88,10.39s3.15,10.4,6.88,10.4a2.45,2.45,0,1,1,0,4.89Z" transform="translate(-61.66 -63.38)"/><path class="cls-11" d="M272.49,117.58c-6.49,0-11.78-6.86-11.78-15.29S266,87,272.49,87a10.61,10.61,0,0,1,8.57,4.77,2.45,2.45,0,1,1-4,2.88,5.85,5.85,0,0,0-4.61-2.75c-3.73,0-6.88,4.76-6.88,10.39s3.15,10.4,6.88,10.4a2.45,2.45,0,0,1,0,4.89Z" transform="translate(-61.66 -63.38)"/><path class="cls-11" d="M272.49,117.58c-6.49,0-11.78-6.86-11.78-15.29S266,87,272.49,87a10.61,10.61,0,0,1,8.57,4.77,2.45,2.45,0,1,1-4,2.88,5.85,5.85,0,0,0-4.61-2.75c-3.73,0-6.88,4.76-6.88,10.39s3.15,10.4,6.88,10.4a2.45,2.45,0,0,1,0,4.89Z" transform="translate(-61.66 -63.38)"/><path class="cls-11" d="M236.47,117.58c-6.49,0-11.77-6.86-11.77-15.29S230,87,236.47,87A10.61,10.61,0,0,1,245,91.77a2.44,2.44,0,1,1-3.95,2.88,5.85,5.85,0,0,0-4.62-2.75c-3.73,0-6.88,4.76-6.88,10.39s3.15,10.4,6.88,10.4a2.45,2.45,0,1,1,0,4.89Z" transform="translate(-61.66 -63.38)"/><path class="cls-11" d="M236.47,117.58c-6.49,0-11.77-6.86-11.77-15.29S230,87,236.47,87A10.61,10.61,0,0,1,245,91.77a2.44,2.44,0,1,1-3.95,2.88,5.85,5.85,0,0,0-4.62-2.75c-3.73,0-6.88,4.76-6.88,10.39s3.15,10.4,6.88,10.4a2.45,2.45,0,1,1,0,4.89Z" transform="translate(-61.66 -63.38)"/><path class="cls-13" d="M519.52,108.72l-32.42,240a5.25,5.25,0,0,1-5.65,4.84l-308.56,0c-4.1,0-3.08-3.88-3.08-3.88l1.67-7.07,308.81.46Z" transform="translate(-61.66 -63.38)"/><path class="cls-17" d="M481.73,347a3.65,3.65,0,0,1-3.48,3H172.38a2.5,2.5,0,0,1-2.54-3l32.07-205.11a3.64,3.64,0,0,1,3.47-3H512.13a2.48,2.48,0,0,1,2.52,3Z" transform="translate(-61.66 -63.38)"/><polygon class="cls-17" points="141.44 70.5 454.19 70.5 449.79 97.38 137.13 97.38 141.44 70.5"/><path class="cls-14" d="M239.71,182.34a.29.29,0,0,1,.12,0l-4.31,26.73a.56.56,0,0,1-.49.3H197.88l-.12,0,4.32-26.74a.53.53,0,0,1,.49-.29h37.14m0-1H202.57a1.5,1.5,0,0,0-1.48,1.13l-4.32,26.78a1,1,0,0,0,1.11,1.14H235a1.51,1.51,0,0,0,1.48-1.14l4.32-26.78a1,1,0,0,0-1.12-1.13Z" transform="translate(-61.66 -63.38)"/><path class="cls-18" d="M241.53,178.13a1.5,1.5,0,0,1-1.48,1.13H202.9a1,1,0,0,1-1.11-1.13l.93-5.75a1.5,1.5,0,0,1,1.48-1.13h37.14a1,1,0,0,1,1.11,1.13Z" transform="translate(-61.66 -63.38)"/><polygon class="cls-19" points="176.24 113.67 155.79 113.67 156.42 109.81 176.86 109.81 176.24 113.67"/><path class="cls-20" d="M278.45,209.25a1.49,1.49,0,0,1-1.47,1.14H239.83a1,1,0,0,1-1.11-1.14L243,182.47a1.5,1.5,0,0,1,1.48-1.13h37.14a1,1,0,0,1,1.11,1.13Z" transform="translate(-61.66 -63.38)"/><path class="cls-18" d="M283.47,178.13a1.48,1.48,0,0,1-1.47,1.13H244.85a1,1,0,0,1-1.11-1.13l.93-5.75a1.49,1.49,0,0,1,1.48-1.13h37.14a1,1,0,0,1,1.11,1.13Z" transform="translate(-61.66 -63.38)"/><polygon class="cls-19" points="218.19 113.67 197.74 113.67 198.37 109.81 218.81 109.81 218.19 113.67"/><path class="cls-14" d="M320.4,209.25a1.49,1.49,0,0,1-1.48,1.14H281.78a1,1,0,0,1-1.11-1.14L285,182.47a1.49,1.49,0,0,1,1.48-1.13h37.14a1,1,0,0,1,1.11,1.13Z" transform="translate(-61.66 -63.38)"/><path class="cls-18" d="M325.42,178.13a1.49,1.49,0,0,1-1.48,1.13H286.8a1,1,0,0,1-1.11-1.13l.93-5.75a1.49,1.49,0,0,1,1.47-1.13h37.15a1,1,0,0,1,1.11,1.13Z" transform="translate(-61.66 -63.38)"/><polygon class="cls-19" points="260.14 113.67 239.69 113.67 240.32 109.81 260.76 109.81 260.14 113.67"/><path class="cls-14" d="M362.35,209.25a1.49,1.49,0,0,1-1.48,1.14H323.73a1,1,0,0,1-1.11-1.14l4.32-26.78a1.49,1.49,0,0,1,1.48-1.13h37.14a1,1,0,0,1,1.11,1.13Z" transform="translate(-61.66 -63.38)"/><path class="cls-18" d="M367.37,178.13a1.49,1.49,0,0,1-1.47,1.13H328.75a1,1,0,0,1-1.11-1.13l.93-5.75a1.49,1.49,0,0,1,1.48-1.13h37.14a1,1,0,0,1,1.11,1.13Z" transform="translate(-61.66 -63.38)"/><polygon class="cls-17" points="299.12 132.07 286.92 132.07 288.64 121.41 300.84 121.41 299.12 132.07"/><polygon class="cls-19" points="302.09 113.67 281.64 113.67 282.26 109.81 302.71 109.81 302.09 113.67"/><path class="cls-14" d="M404.3,209.25a1.49,1.49,0,0,1-1.48,1.14H365.68a1,1,0,0,1-1.11-1.14l4.32-26.78a1.49,1.49,0,0,1,1.48-1.13h37.14a1,1,0,0,1,1.11,1.13Z" transform="translate(-61.66 -63.38)"/><path class="cls-18" d="M409.32,178.13a1.49,1.49,0,0,1-1.48,1.13H370.7a1,1,0,0,1-1.11-1.13l.93-5.75a1.48,1.48,0,0,1,1.47-1.13h37.15a1,1,0,0,1,1.11,1.13Z" transform="translate(-61.66 -63.38)"/><polygon class="cls-17" points="341.07 132.07 328.87 132.07 330.59 121.41 342.79 121.41 341.07 132.07"/><polygon class="cls-21" points="215.14 132.07 202.94 132.07 204.66 121.41 216.86 121.41 215.14 132.07"/><polygon class="cls-17" points="257.09 132.07 244.89 132.07 246.6 121.41 258.81 121.41 257.09 132.07"/><polygon class="cls-19" points="344.04 113.67 323.59 113.67 324.21 109.81 344.66 109.81 344.04 113.67"/><path class="cls-14" d="M446.25,209.25a1.49,1.49,0,0,1-1.48,1.14H407.63a1,1,0,0,1-1.11-1.14l4.32-26.78a1.49,1.49,0,0,1,1.47-1.13h37.15a1,1,0,0,1,1.11,1.13Z" transform="translate(-61.66 -63.38)"/><path class="cls-18" d="M451.27,178.13a1.49,1.49,0,0,1-1.48,1.13H412.65a1,1,0,0,1-1.12-1.13l.93-5.75a1.5,1.5,0,0,1,1.48-1.13h37.15a1,1,0,0,1,1.11,1.13Z" transform="translate(-61.66 -63.38)"/><polygon class="cls-17" points="383.02 132.07 370.82 132.07 372.54 121.41 384.74 121.41 383.02 132.07"/><polygon class="cls-19" points="385.99 113.67 365.54 113.67 366.16 109.81 386.61 109.81 385.99 113.67"/><path class="cls-14" d="M488.2,209.25a1.5,1.5,0,0,1-1.48,1.14H449.58a1,1,0,0,1-1.12-1.14l4.33-26.78a1.48,1.48,0,0,1,1.47-1.13h37.15a1,1,0,0,1,1.11,1.13Z" transform="translate(-61.66 -63.38)"/><path class="cls-18" d="M493.22,178.13a1.5,1.5,0,0,1-1.48,1.13H454.6a1,1,0,0,1-1.12-1.13l.93-5.75a1.5,1.5,0,0,1,1.48-1.13H493a1,1,0,0,1,1.11,1.13Z" transform="translate(-61.66 -63.38)"/><polygon class="cls-18" points="424.97 132.07 412.77 132.07 414.49 121.41 426.69 121.41 424.97 132.07"/><path class="cls-14" d="M231.42,240.75a1.49,1.49,0,0,1-1.48,1.14H192.8a1,1,0,0,1-1.11-1.14L196,214a1.49,1.49,0,0,1,1.48-1.13h37.14a1,1,0,0,1,1.11,1.13Z" transform="translate(-61.66 -63.38)"/><polygon class="cls-17" points="168.19 163.57 155.99 163.57 157.71 152.91 169.91 152.91 168.19 163.57"/><path class="cls-14" d="M273.37,240.75a1.5,1.5,0,0,1-1.48,1.14H234.75a1,1,0,0,1-1.11-1.14L238,214a1.49,1.49,0,0,1,1.48-1.13h37.14a1,1,0,0,1,1.11,1.13Z" transform="translate(-61.66 -63.38)"/><polygon class="cls-17" points="210.14 163.57 197.94 163.57 199.66 152.91 211.86 152.91 210.14 163.57"/><path class="cls-13" d="M315.32,240.75a1.5,1.5,0,0,1-1.48,1.14H276.7a1,1,0,0,1-1.12-1.14L279.91,214a1.49,1.49,0,0,1,1.48-1.13h37.14a1,1,0,0,1,1.11,1.13Z" transform="translate(-61.66 -63.38)"/><polygon class="cls-21" points="252.09 163.57 239.89 163.57 241.61 152.91 253.81 152.91 252.09 163.57"/><polygon class="cls-13" points="259.13 92.84 143.95 92.84 145.67 82.19 260.85 82.19 259.13 92.84"/><polygon class="cls-13" points="431.31 92.84 403.62 92.84 405.34 82.19 433.03 82.19 431.31 92.84"/><polygon class="cls-20" points="178.75 98.84 143.1 98.84 143.96 94.43 179.61 94.43 178.75 98.84"/><polygon class="cls-20" points="223.59 98.84 180.83 98.84 181.69 94.43 224.45 94.43 223.59 98.84"/><path class="cls-13" d="M357.27,240.75a1.5,1.5,0,0,1-1.48,1.14H318.65a1,1,0,0,1-1.12-1.14L321.85,214a1.51,1.51,0,0,1,1.48-1.13h37.15a1,1,0,0,1,1.11,1.13Z" transform="translate(-61.66 -63.38)"/><polygon class="cls-21" points="294.04 163.57 281.84 163.57 283.56 152.91 295.76 152.91 294.04 163.57"/><path class="cls-13" d="M399.22,240.75a1.5,1.5,0,0,1-1.48,1.14H360.6a1,1,0,0,1-1.12-1.14L363.8,214a1.51,1.51,0,0,1,1.48-1.13h37.14a1,1,0,0,1,1.12,1.13Z" transform="translate(-61.66 -63.38)"/><polygon class="cls-21" points="335.99 163.57 323.79 163.57 325.51 152.91 337.7 152.91 335.99 163.57"/><path class="cls-13" d="M441.17,240.75a1.5,1.5,0,0,1-1.48,1.14H402.54a1,1,0,0,1-1.11-1.14L405.75,214a1.5,1.5,0,0,1,1.48-1.13h37.15a1,1,0,0,1,1.11,1.13Z" transform="translate(-61.66 -63.38)"/><polygon class="cls-21" points="377.94 163.57 365.74 163.57 367.46 152.91 379.65 152.91 377.94 163.57"/><path class="cls-14" d="M483.12,240.75a1.5,1.5,0,0,1-1.48,1.14H444.49a1,1,0,0,1-1.11-1.14L447.7,214a1.5,1.5,0,0,1,1.48-1.13h37.14a1,1,0,0,1,1.12,1.13Z" transform="translate(-61.66 -63.38)"/><polygon class="cls-18" points="419.88 163.57 407.69 163.57 409.41 152.91 421.6 152.91 419.88 163.57"/><path class="cls-14" d="M226.34,272.25a1.5,1.5,0,0,1-1.48,1.14H187.72a1,1,0,0,1-1.12-1.14l4.33-26.78a1.49,1.49,0,0,1,1.47-1.13h37.15a1,1,0,0,1,1.11,1.13Z" transform="translate(-61.66 -63.38)"/><polygon class="cls-17" points="163.11 195.07 150.91 195.07 152.63 184.41 164.83 184.41 163.11 195.07"/><path class="cls-14" d="M268.29,272.25a1.5,1.5,0,0,1-1.48,1.14H229.67a1,1,0,0,1-1.12-1.14l4.33-26.78a1.49,1.49,0,0,1,1.47-1.13H271.5a1,1,0,0,1,1.11,1.13Z" transform="translate(-61.66 -63.38)"/><polygon class="cls-17" points="205.06 195.07 192.86 195.07 194.58 184.41 206.78 184.41 205.06 195.07"/><path class="cls-14" d="M310.24,272.25a1.5,1.5,0,0,1-1.48,1.14H271.62a1,1,0,0,1-1.12-1.14l4.32-26.78a1.5,1.5,0,0,1,1.48-1.13h37.15a1,1,0,0,1,1.11,1.13Z" transform="translate(-61.66 -63.38)"/><polygon class="cls-17" points="247.01 195.07 234.81 195.07 236.53 184.41 248.73 184.41 247.01 195.07"/><path class="cls-14" d="M352.19,272.25a1.51,1.51,0,0,1-1.48,1.14H313.56a1,1,0,0,1-1.11-1.14l4.32-26.78a1.5,1.5,0,0,1,1.48-1.13H355.4a1,1,0,0,1,1.11,1.13Z" transform="translate(-61.66 -63.38)"/><polygon class="cls-17" points="288.95 195.07 276.75 195.07 278.48 184.41 290.67 184.41 288.95 195.07"/><path class="cls-14" d="M394.14,272.25a1.5,1.5,0,0,1-1.48,1.14H355.51a1,1,0,0,1-1.11-1.14l4.32-26.78a1.5,1.5,0,0,1,1.48-1.13h37.14a1,1,0,0,1,1.12,1.13Z" transform="translate(-61.66 -63.38)"/><polygon class="cls-17" points="330.9 195.07 318.7 195.07 320.43 184.41 332.62 184.41 330.9 195.07"/><path class="cls-14" d="M436.09,272.25a1.51,1.51,0,0,1-1.48,1.14H397.46a1,1,0,0,1-1.11-1.14l4.32-26.78a1.5,1.5,0,0,1,1.48-1.13h37.14a1,1,0,0,1,1.12,1.13Z" transform="translate(-61.66 -63.38)"/><polygon class="cls-17" points="372.85 195.07 360.65 195.07 362.37 184.41 374.57 184.41 372.85 195.07"/><path class="cls-14" d="M478,272.25a1.51,1.51,0,0,1-1.48,1.14H439.41a1,1,0,0,1-1.11-1.14l4.32-26.78a1.5,1.5,0,0,1,1.48-1.13h37.14a1,1,0,0,1,1.11,1.13Z" transform="translate(-61.66 -63.38)"/><polygon class="cls-18" points="414.8 195.07 402.6 195.07 404.32 184.41 416.52 184.41 414.8 195.07"/><path class="cls-14" d="M221.26,303.75a1.5,1.5,0,0,1-1.48,1.14H182.63a1,1,0,0,1-1.11-1.14L185.84,277a1.5,1.5,0,0,1,1.48-1.13h37.14a1,1,0,0,1,1.12,1.13Z" transform="translate(-61.66 -63.38)"/><polygon class="cls-17" points="158.02 226.57 145.83 226.57 147.54 215.91 159.74 215.91 158.02 226.57"/><path class="cls-18" d="M263.21,303.75a1.5,1.5,0,0,1-1.48,1.14H224.58a1,1,0,0,1-1.11-1.14L227.79,277a1.5,1.5,0,0,1,1.48-1.13h37.14a1,1,0,0,1,1.12,1.13Z" transform="translate(-61.66 -63.38)"/><polygon class="cls-19" points="199.97 226.57 187.78 226.57 189.49 215.91 201.69 215.91 199.97 226.57"/><path class="cls-14" d="M305.15,303.75a1.48,1.48,0,0,1-1.47,1.14H266.53a1,1,0,0,1-1.11-1.14L269.74,277a1.5,1.5,0,0,1,1.48-1.13h37.14a1,1,0,0,1,1.12,1.13Z" transform="translate(-61.66 -63.38)"/><polygon class="cls-17" points="241.92 226.57 229.72 226.57 231.44 215.91 243.64 215.91 241.92 226.57"/><path class="cls-14" d="M347.1,303.75a1.49,1.49,0,0,1-1.47,1.14H308.48a1,1,0,0,1-1.11-1.14L311.69,277a1.49,1.49,0,0,1,1.48-1.13h37.14a1,1,0,0,1,1.11,1.13Z" transform="translate(-61.66 -63.38)"/><polygon class="cls-17" points="283.87 226.57 271.67 226.57 273.39 215.91 285.59 215.91 283.87 226.57"/><path class="cls-14" d="M389.05,303.75a1.48,1.48,0,0,1-1.47,1.14H350.43a1,1,0,0,1-1.11-1.14L353.64,277a1.49,1.49,0,0,1,1.48-1.13h37.14a1,1,0,0,1,1.11,1.13Z" transform="translate(-61.66 -63.38)"/><polygon class="cls-17" points="325.82 226.57 313.62 226.57 315.34 215.91 327.54 215.91 325.82 226.57"/><path class="cls-22" d="M431,303.75a1.49,1.49,0,0,1-1.48,1.14H392.38a1,1,0,0,1-1.11-1.14L395.59,277a1.49,1.49,0,0,1,1.48-1.13h37.14a1,1,0,0,1,1.11,1.13Z" transform="translate(-61.66 -63.38)"/><polygon class="cls-21" points="367.77 226.57 355.57 226.57 357.29 215.91 369.49 215.91 367.77 226.57"/><path class="cls-22" d="M473,303.75a1.49,1.49,0,0,1-1.48,1.14H434.33a1,1,0,0,1-1.11-1.14L437.54,277a1.49,1.49,0,0,1,1.47-1.13h37.15a1,1,0,0,1,1.11,1.13Z" transform="translate(-61.66 -63.38)"/><polygon class="cls-21" points="409.72 226.57 397.52 226.57 399.24 215.91 411.44 215.91 409.72 226.57"/><path class="cls-14" d="M216.17,335.25a1.49,1.49,0,0,1-1.47,1.14H177.55a1,1,0,0,1-1.11-1.14l4.32-26.78a1.5,1.5,0,0,1,1.48-1.13h37.14a1,1,0,0,1,1.12,1.13Z" transform="translate(-61.66 -63.38)"/><polygon class="cls-17" points="152.94 258.07 140.74 258.07 142.46 247.41 154.66 247.41 152.94 258.07"/><path class="cls-14" d="M258.12,335.25a1.49,1.49,0,0,1-1.48,1.14H219.5a1,1,0,0,1-1.11-1.14l4.32-26.78a1.5,1.5,0,0,1,1.48-1.13h37.14a1,1,0,0,1,1.12,1.13Z" transform="translate(-61.66 -63.38)"/><polygon class="cls-17" points="194.89 258.07 182.69 258.07 184.41 247.41 196.61 247.41 194.89 258.07"/><path class="cls-14" d="M300.07,335.25a1.49,1.49,0,0,1-1.48,1.14H261.45a1,1,0,0,1-1.11-1.14l4.32-26.78a1.49,1.49,0,0,1,1.48-1.13h37.14a1,1,0,0,1,1.11,1.13Z" transform="translate(-61.66 -63.38)"/><polygon class="cls-17" points="236.84 258.07 224.64 258.07 226.36 247.41 238.56 247.41 236.84 258.07"/><path class="cls-3" d="M342,335.25a1.49,1.49,0,0,1-1.48,1.14H303.4a1,1,0,0,1-1.11-1.14l4.32-26.78a1.49,1.49,0,0,1,1.48-1.13h37.14a1,1,0,0,1,1.11,1.13Z" transform="translate(-61.66 -63.38)"/><path class="cls-3" d="M384,335.25a1.49,1.49,0,0,1-1.48,1.14H345.35a1,1,0,0,1-1.12-1.14l4.33-26.78a1.49,1.49,0,0,1,1.48-1.13h37.14a1,1,0,0,1,1.11,1.13Z" transform="translate(-61.66 -63.38)"/><path class="cls-14" d="M429.13,308.34l.12,0-4.32,26.73a.53.53,0,0,1-.49.3H387.3l-.12,0,4.31-26.74a.55.55,0,0,1,.49-.29h37.15m0-1H392a1.51,1.51,0,0,0-1.48,1.13l-4.32,26.78a1,1,0,0,0,1.12,1.14h37.14a1.5,1.5,0,0,0,1.48-1.14l4.32-26.78a1,1,0,0,0-1.11-1.13Z" transform="translate(-61.66 -63.38)"/><path class="cls-14" d="M471.08,308.34l.12,0-4.32,26.74a.53.53,0,0,1-.49.29H429.25l-.12,0,4.31-26.74a.55.55,0,0,1,.49-.29h37.15m0-1H433.93a1.51,1.51,0,0,0-1.48,1.13l-4.32,26.78a1,1,0,0,0,1.12,1.14h37.14a1.5,1.5,0,0,0,1.48-1.14l4.32-26.78a1,1,0,0,0-1.11-1.13Z" transform="translate(-61.66 -63.38)"/><polygon class="cls-19" points="427.94 113.67 407.49 113.67 408.11 109.81 428.56 109.81 427.94 113.67"/><g class="cls-9"><path class="cls-10" d="M79.14,440.33c0,4.62,33.56,8.42,74.94,8.48S229,445.17,229,440.55s-33.56-8.42-75-8.48S79.14,435.71,79.14,440.33Z" transform="translate(-61.66 -63.38)"/></g><path class="cls-11" d="M184.21,182.35c-3.24,9,5.47,15.8-1,23.81,0,0-11.72-3.18-7.81-17S184.21,182.35,184.21,182.35Z" transform="translate(-61.66 -63.38)"/><path class="cls-18" d="M127,290.5c3.39,3.17,2.28,7.22,2.61,10,.21,1.87,1.21,4-.35,3.34-2.81-1.17-2.23-5.85-2.23-5.85a2.14,2.14,0,0,0-1.12,1.61c-.32,2.06,2,6.4,2.25,8.46s-4.22.21-5.94-2.27c-3.18-4.25-3-11.56-2.95-12.24.06-1.46.15-5.59.15-5.59l8.28-5S126.49,290,127,290.5Z" transform="translate(-61.66 -63.38)"/><path class="cls-18" d="M251.45,206.2s17.05-16.67,18.36-17.29.66,2.29-1.15,3.74a51.86,51.86,0,0,1-4.25,5c-.92.64,5.22,5.17,2.49,8.84a20.48,20.48,0,0,1-4.42,3.13l-5.14,3.08Z" transform="translate(-61.66 -63.38)"/><path class="cls-14" d="M183.67,418.42s-.4,1.71,1,7.26-14,6.62-14.44,2.9c-.52-3.93.59-10.2.47-11.63S183.67,418.42,183.67,418.42Z" transform="translate(-61.66 -63.38)"/><path class="cls-14" d="M127,417.48a12.9,12.9,0,0,0-2.13,7.52c.25,4.18-10.25,1.38-10.42,0a28.83,28.83,0,0,1,2.05-10.68C118.25,410.13,127,417.48,127,417.48Z" transform="translate(-61.66 -63.38)"/><path class="cls-11" d="M126.12,424.72c.15,5.23,5.28,7.73,5.08,11.74,0,.77,0,2.33-.45,3-1.35,1.85-4.56,2.07-7.2,2.07-3.8,0-7.71-.29-10.64-1.44-4.9-1.93,0-11.14.32-15.52C113.46,420.83,126,419.48,126.12,424.72Z" transform="translate(-61.66 -63.38)"/><path class="cls-11" d="M166.59,312.53C163.43,326.25,151.67,359.12,148,365c-2.82,4.53-13.71,36.15-18.27,47.27-.22.54.09,2-.14,2.52-1.13,2.25-1.9,3.78-2.16,4.27-1.59,3-13.07-.85-12.53-4.29.08-.48.72-2.53,1.2-4.27.14-.52,1.1-1.19,1.27-1.8,3.39-12,7.42-41.77,14.86-51.52,7.17-37.29,6.25-57.23,11.16-74.32,0,0,1.73.56,7.52,1.82a95.48,95.48,0,0,0,31.81,1q3.13-.31,6.45-.81a479.3,479.3,0,0,1,2.33,70.69c-.31,5.75-4.15,37.72-6.6,54.46-.09.62.77,1.14.68,1.73-.34,2.41-.51,5.62-.71,7.26-.14,2.85-15.13,2.18-14.73-.3.32-2-.42-4.29-.19-6.35,0-.46,1.29-1.88,1.33-2.34,1.74-17.17-1.32-37.17.68-50.93Z" transform="translate(-61.66 -63.38)"/><path class="cls-11" d="M169.26,426.06c0,.69-.08,1.52,0,2.09,0,.77-.38,5.9-.51,9-.06,1.41.17,2.14,1.84,2.33,5,.57,18.66,1,21.82,1,3.84,0,7.49-.26,8.23-1.76a4.7,4.7,0,0,0-.05-4.59c-1.14-1.66-4-2.95-7.87-4.16s-3.37-2.11-4.8-5.12c-.75-1.59-3.74-1.5-8.21-1-1.09.1-1.93,3.74-4.1,3.94a6.62,6.62,0,0,1-5.57-2.06C169.55,425.2,169.3,425.38,169.26,426.06Z" transform="translate(-61.66 -63.38)"/><polygon class="cls-11" points="116.53 134.17 110.88 132.77 105.74 127.05 101.45 133.3 89.63 136.01 91.75 230.4 118.27 230.83 122.36 143.85 116.53 134.17"/><path class="cls-22" d="M145,202.15c2.85-2.59,16.42-5.79,18.61-6.5h11.09s14.29,5,17.24,6.76,25.32,22.07,26.57,23.86c3.63-1.1,15-9.5,25.87-16.34.61-.57,2.67-.5,3.2-1,1.76-1.64,3-2.82,3.61-3.3,3.34-2.82,9.65,4.15,7.06,6.87-.43.47-1.65,1.75-3.38,3.57-.41.43-.67,2-1.14,2.51C242,227.34,219,244.41,215.14,243.93c-4.45-2-22.42-17.55-22.42-17.55a39.21,39.21,0,0,1-1.08,14.28c-1.3,5.21-2.62,23.58-.76,29.49,1.38,4.39-.65,6.75-.65,6.75s1,7.12-.93,8.75c-1.75,1.49-10,3.22-22.18,3.18-11.83,0-23.49-2.76-24.14-4.41-.73-1.85,0-8.59,0-8.59l-1.75-1.43,3.74-44" transform="translate(-61.66 -63.38)"/><path class="cls-21" d="M192,272.8c-4.94,2.94-23.65,2.67-23.65,2.67l-.65-2.67-.54,2.68h-1.31l-.44-1.34-1.69,1.34s-9.63,0-14.61-.63L148,272.8l-.89,1.87-5.88-.27,1.75,1.43s8.31,2.76,23,2.76c16.93,0,24.24-1.69,24.24-1.69Z" transform="translate(-61.66 -63.38)"/><path class="cls-21" d="M244.67,209.74a49.89,49.89,0,0,1,7,7l-1.59,2,2.08-1.43.39.37-.57.73,1-.5.84.49.54-1.33s-.7-5-7-8Z" transform="translate(-61.66 -63.38)"/><polygon class="cls-21" points="83.31 167.01 84.82 160.86 73.51 181.57 83.31 167.01"/><path class="cls-23" d="M171.9,436.5s.06-3.56,3.11-3.56,3.69,3.77,3.69,3.77,8.55.44,12.65.27c4.43-.18,9.88-.64,9.63-1.92a5.16,5.16,0,0,1-.39,3.65c-.74,1.5-4.39,1.76-8.23,1.76-3.16,0-16.8-.41-21.82-1-1.67-.19-1.9-.92-1.84-2.33,0-.63.06-1.34.11-2.08C168.73,436.41,171.9,436.5,171.9,436.5Z" transform="translate(-61.66 -63.38)"/><path class="cls-23" d="M119.75,436.5c4.42.46,11.42,0,11.26-1.59a4.46,4.46,0,0,1,.19,1.55c0,.77,0,2.33-.45,3-1.35,1.85-4.56,2.07-7.2,2.07-3.8,0-7.71-.29-10.64-1.44-2.39-1-2.43-3.63-1.82-6.64C110.94,434.29,115.49,436.06,119.75,436.5Z" transform="translate(-61.66 -63.38)"/><path class="cls-21" d="M185,199.43c-1.22,7.08-5.95,13.53-15.74,12.87-9.27-.62-14-8.53-13.71-14.46l3.49-.94,20.64.62Z" transform="translate(-61.66 -63.38)"/><path class="cls-18" d="M163.81,178.47c.74,6.54-.86,16.67-2,17.68l-3.61,1c-.2,14.63,22.33,17.39,24.65,1.36l-5-1.78s.16-4.26,0-7.25c-.24-4.47-.69-12.08-.69-12.08Z" transform="translate(-61.66 -63.38)"/><path class="cls-22" d="M153.91,213.53c-.34,4.75-15.21,37.58-15.21,37.58s-5.4,20.58-7.25,30.57c-.11.56-1.66,1.58-1.76,2.09-.53,2.86-.91,5-1,5.62-.43,2.9-10.42.71-10.39-2.16,0-.69.35-3.11.87-6.4.11-.73-1.21-1.45-1.08-2.25,1.74-10.73,6.82-32.63,6.82-32.63l11.93-34.35c2.57-6.22,8.8-10.8,14.19-12.43C155,198,153.91,213.53,153.91,213.53Z" transform="translate(-61.66 -63.38)"/><path class="cls-21" d="M131.45,281.68a38,38,0,0,1-8.16-1.19s-.6-2.73-.62-2.48-.23,2.19-.23,2.19l-.88-.35-.3-1.07-.5.74a5.46,5.46,0,0,1-2.64-.59l1,1.65s4.9,4.77,10.54,3.19Z" transform="translate(-61.66 -63.38)"/><path class="cls-21" d="M192.72,226.38v-5.06l21.7,22.24S198.58,232.42,192.72,226.38Z" transform="translate(-61.66 -63.38)"/><path class="cls-21" d="M144.28,238.52l4.67-11s-3,19.8-6.61,33.82Z" transform="translate(-61.66 -63.38)"/><path class="cls-11" d="M166,153c-7.82,2.73-12.94,9.18-11.11,18.21,1.64,8,7.05,9.45,4.91,14.74s-10.85,20.48-6.15,29.47c4.19,8,19.32,7.43,20.23-5.28.72-10-7-12.6-8.42-21-1.28-7.77-4.63-20.27,1.38-27.77S166,153,166,153Z" transform="translate(-61.66 -63.38)"/><path class="cls-19" d="M177.83,191.45c-2.4,0-10.15-5.95-10.62-7.47a13.54,13.54,0,0,0-1.75-3.25s-.15,7.13,3.52,10.65c5,4.76,8.77.92,8.77.92S177.93,192.5,177.83,191.45Z" transform="translate(-61.66 -63.38)"/><path class="cls-18" d="M159.38,170.41a13.53,13.53,0,0,0,14.35,12.66c7.46-.46,13.27-7.62,12.8-15.07-.09-1.61-.13-4.23-.73-5.63-3.67-8.49-17.12-10-24-2.11C159.36,163,159.18,167.05,159.38,170.41Z" transform="translate(-61.66 -63.38)"/><path class="cls-18" d="M186.34,171.06c0,7.15-3.16,19.24-9.46,20.7-2.95.69-10.45-4-11.14-9s-1.4-10.36-1.4-10.36" transform="translate(-61.66 -63.38)"/><path class="cls-11" d="M185.13,176.82c-.11,1-.79,1.72-1.53,1.64a1.61,1.61,0,0,1-1.12-1.94c.11-1,.79-1.72,1.52-1.64A1.61,1.61,0,0,1,185.13,176.82Z" transform="translate(-61.66 -63.38)"/><path class="cls-11" d="M175.4,176c-.05,1-.69,1.76-1.42,1.73a1.62,1.62,0,0,1-1.25-1.86c.05-1,.68-1.77,1.42-1.74A1.63,1.63,0,0,1,175.4,176Z" transform="translate(-61.66 -63.38)"/><path class="cls-19" d="M181.73,182.07a6.05,6.05,0,0,1-2,.51,8.28,8.28,0,0,1-2.33-1C177.29,181.36,182.19,181.84,181.73,182.07Z" transform="translate(-61.66 -63.38)"/><path class="cls-11" d="M175.49,172.41l-.2-.07-.5-.17a1.7,1.7,0,0,0-.34-.07c-.12,0-.24-.07-.37-.08a4.25,4.25,0,0,0-.8,0l-.41,0c-.13,0-.26.09-.39.12l-.37.11a1.59,1.59,0,0,0-.32.16c-.39.21-.68.34-.68.34l-.06,0a.27.27,0,0,1-.35-.13.27.27,0,0,1,.05-.3s.24-.24.64-.58a1.9,1.9,0,0,1,.34-.26l.43-.21.49-.2.54-.08a2.06,2.06,0,0,1,.55,0l.53.07c.17,0,.32.11.47.16a2,2,0,0,1,.39.2,2.59,2.59,0,0,1,.53.39.87.87,0,0,1,.16.18l0,.06a.26.26,0,0,1-.12.36A.25.25,0,0,1,175.49,172.41Z" transform="translate(-61.66 -63.38)"/><path class="cls-11" d="M182.16,172.12s0,0,.19-.12a3.07,3.07,0,0,1,.53-.15,3.27,3.27,0,0,1,1.55.12,2.48,2.48,0,0,1,.77.41,2.13,2.13,0,0,1,.52.58,2.22,2.22,0,0,1,.26.69.07.07,0,0,0-.07-.13h0l-.53.36s-.14-.19-.35-.4a4.46,4.46,0,0,0-.39-.32,4.54,4.54,0,0,0-.54-.26,3.94,3.94,0,0,0-1.16-.22,2.42,2.42,0,0,0-.36,0s-.14,0-.12,0a.33.33,0,0,1-.44-.14A.32.32,0,0,1,182.16,172.12Z" transform="translate(-61.66 -63.38)"/><path class="cls-14" d="M181.5,185.28c-.17-.41-6-.62-6.4-.41s1.76,2.25,3.08,2.35C179.19,187.29,181.71,185.76,181.5,185.28Z" transform="translate(-61.66 -63.38)"/><path class="cls-11" d="M187.64,168.56a8.75,8.75,0,0,1-2.52,0c-.4,0-.36-3.37-.81-3.39-.24,0-.94,3.31-1.18,3.29s-.3-1.42-.62-1.44-.91.85-1.3.81c-3.35-.36-8.18-.93-9.66-2.06-.22-.18,0-5.11-.23-5.21-.48-.18-1.45,5.6-1.81,5.38-1-.62-2.34.52-2.6,4.61-.23,3.6-.58,6.37-.58,6.37l-1.14-.06s-.88-5.39-2.93-5.42c-2.37,0-2.14,3.18-2.14,3.18l1.55,3.42a25.34,25.34,0,0,1-3.28-8.5c-1.25-7.17-1.42-13.6,7.37-16.54a22.38,22.38,0,0,1,14.64.38c3.75,1.5,5.75,3.31,7.13,6.75S187.64,168.56,187.64,168.56Z" transform="translate(-61.66 -63.38)"/><path class="cls-19" d="M159.42,176.11c.47,2.38,2.52,5.35,4.25,4.31,1.39-.84.26-8-1.68-8.3S159,173.72,159.42,176.11Z" transform="translate(-61.66 -63.38)"/><path class="cls-19" d="M573.66,65.35a69.51,69.51,0,1,0,69.51,69.51A69.51,69.51,0,0,0,573.66,65.35Zm0,127.42a57.91,57.91,0,1,1,57.91-57.91A57.91,57.91,0,0,1,573.66,192.77Z" transform="translate(-61.66 -63.38)"/><circle class="cls-18" cx="512" cy="69.51" r="69.51"/><g class="cls-24"><path class="cls-25" d="M631.57,132.89A57.91,57.91,0,1,1,573.66,75,57.91,57.91,0,0,1,631.57,132.89Z" transform="translate(-61.66 -63.38)"/></g><path class="cls-17" d="M631.57,135.44a57.91,57.91,0,1,1-57.91-57.91A57.91,57.91,0,0,1,631.57,135.44Z" transform="translate(-61.66 -63.38)"/><path class="cls-19" d="M573.66,92.45a1.35,1.35,0,0,1-1.35-1.34v-11a1.35,1.35,0,1,1,2.69,0v11A1.34,1.34,0,0,1,573.66,92.45Z" transform="translate(-61.66 -63.38)"/><path class="cls-19" d="M573.66,188.77a1.35,1.35,0,0,1-1.35-1.34V176.38a1.35,1.35,0,0,1,2.69,0v11.05A1.34,1.34,0,0,1,573.66,188.77Z" transform="translate(-61.66 -63.38)"/><rect class="cls-19" x="548.68" y="86.52" width="1.79" height="11.04" transform="matrix(0.87, -0.5, 0.5, 0.87, -34.04, 223.75)"/><rect class="cls-19" x="596.84" y="169.93" width="1.79" height="11.04" transform="translate(-69.31 258.98) rotate(-30)"/><rect class="cls-19" x="531.05" y="104.15" width="1.79" height="11.04" transform="translate(109.31 452.1) rotate(-59.99)"/><rect class="cls-19" x="614.47" y="152.3" width="1.79" height="11.04" transform="matrix(0.5, -0.87, 0.87, 0.5, 109.34, 548.45)"/><path class="cls-19" d="M531,135.09H520a1.35,1.35,0,1,1,0-2.69h11a1.35,1.35,0,0,1,0,2.69Z" transform="translate(-61.66 -63.38)"/><path class="cls-19" d="M627.34,135.09H616.29a1.35,1.35,0,0,1,0-2.69h11.05a1.35,1.35,0,0,1,0,2.69Z" transform="translate(-61.66 -63.38)"/><rect class="cls-19" x="526.43" y="156.93" width="11.04" height="1.79" transform="translate(-69.34 223.6) rotate(-29.99)"/><rect class="cls-19" x="609.84" y="108.77" width="11.04" height="1.79" transform="matrix(0.87, -0.5, 0.5, 0.87, -34, 259.13)"/><rect class="cls-19" x="544.06" y="174.56" width="11.04" height="1.79" transform="translate(61 500.09) rotate(-59.97)"/><rect class="cls-19" x="592.22" y="91.14" width="11.04" height="1.79" transform="translate(157.62 500.39) rotate(-60.01)"/><path class="cls-11" d="M573.66,134.31a.82.82,0,0,1-.26,0,.9.9,0,0,1-.6-1.11L583,98.43a.88.88,0,0,1,1.11-.61.9.9,0,0,1,.61,1.11l-10.24,34.74A.9.9,0,0,1,573.66,134.31Z" transform="translate(-61.66 -63.38)"/><path class="cls-11" d="M591.23,146.73a1.89,1.89,0,0,1-1-.29l-17.57-11.53a1.79,1.79,0,0,1,2-3l17.57,11.53a1.79,1.79,0,0,1,.52,2.48A1.81,1.81,0,0,1,591.23,146.73Z" transform="translate(-61.66 -63.38)"/><path class="cls-11" d="M579.1,132.89a5.45,5.45,0,1,1-5.44-5.44A5.44,5.44,0,0,1,579.1,132.89Z" transform="translate(-61.66 -63.38)"/><path class="cls-18" d="M573.66,63.38a69.52,69.52,0,1,0,69.51,69.51A69.51,69.51,0,0,0,573.66,63.38Zm0,127.42a57.91,57.91,0,1,1,57.91-57.91A57.91,57.91,0,0,1,573.66,190.8Z" transform="translate(-61.66 -63.38)"/><g class="cls-26"><path class="cls-14" d="M620.21,140.56c0,23.15-20.84,41.92-46.55,41.92s-46.56-18.77-46.56-41.92C527.1,132.66,620.21,132.65,620.21,140.56Z" transform="translate(-61.66 -63.38)"/></g><path class="cls-13" d="M576.29,433.19c6.17-3,13.6-8.89,20.09-13.65a232.07,232.07,0,0,0,37.13-34.15c7.91-9,15.48-21.08,17.69-33.1,1-5.76,1.09-14.82-3.78-19.06-11.88-10.32-33.41,14.2-39.15,22.37-15.58,22.17-27.11,50.71-32,77.59Z" transform="translate(-61.66 -63.38)"/><path class="cls-27" d="M629.59,334.7l.45-.39c.06.07,6.53,7.52,7.84,15.59,5.81-10,9.17-16.6,9.27-16.81l.52.27c-.09.2-3.43,6.71-9.18,16.67,7.64-4.39,13-4.39,13.28-4.39v.59c-.07,0-5.91,0-13.87,4.83-4.07,7-9.28,15.61-15.36,24.88,13.21-9.14,24.5-11.63,24.62-11.66l.12.58c-.12,0-12,2.64-25.58,12.4l0,0c-4.65,7-9.78,14.41-15.28,21.77C621,390.3,629.92,389,630,389l.08.59c-.09,0-9.41,1.39-24.66,10.76h0c-4.31,5.7-8.84,11.36-13.55,16.81,11.6-6.81,17.61-8.37,17.67-8.38l.15.57c-.06,0-6.52,1.68-19.05,9.23-4.58,5.22-9.3,10.22-14.14,14.84l-.41-.41c4.83-4.62,9.55-9.63,14.13-14.84,3-9.51-3.17-22.77-3.23-22.9l.53-.24c.07.12,5.82,12.52,3.58,22.12,4.83-5.57,9.48-11.37,13.89-17.22,2-14-7.82-26.13-7.92-26.26l.45-.37c.11.13,9.63,11.9,8.18,25.7,5.61-7.48,10.83-15,15.55-22.14,2-9.89-9.73-25.26-9.85-25.41l.47-.36c.47.61,11,14.52,10.14,24.63,6.1-9.31,11.32-17.94,15.39-25C636.41,342.55,629.66,334.77,629.59,334.7Z" transform="translate(-61.66 -63.38)"/><path class="cls-28" d="M615.74,346.56s5.72-6.35,10.23-9.41c0,0-10.45,57.29-43.83,88.93l-.87-3.27,12.08-47.47Z" transform="translate(-61.66 -63.38)"/><path class="cls-18" d="M575.75,434.39c.17-4.6,8.16-15.08,10.66-19.9a517.37,517.37,0,0,0,22.36-48.2c10.61-26.74,20-62.07,13.28-90.83-2.47-10.62-10-27.89-23.59-26.13-10.13,1.32-16,13.74-19.23,22.25-8.5,22.38-9.89,46.9-10.67,70.59-.89,27.22.78,54.71,2.26,82Z" transform="translate(-61.66 -63.38)"/><path class="cls-19" d="M581.83,396.06c-4.17-23.52-13.93-37.65-14-37.79l.73-.5c.08.13,9.4,13.63,13.79,36.17q3.55-15.46,6.29-29.62c-8.73-31.29-19.34-41-19.45-41.1l.58-.66c.43.39,10.53,9.62,19.24,39.86,2.38-12.46,4.34-24.09,5.94-34.78-6.74-28.85-20.26-41.5-20.39-41.62l.59-.64c.13.12,13.18,12.33,20.14,40,1.94-13.28,3.32-25.08,4.31-35.18-2.68-22.66-13.45-32-13.57-32.12l.57-.67c.11.09,10,8.65,13.35,29.07C602.07,263,602,249.67,602,249.37h.87c0,.32.07,14.55-2.31,39.45,2.81-3.89,11.56-15.28,20-18.43l.32.81c-9.67,3.6-20.18,18.91-20.5,19.38-1,10.06-2.36,21.77-4.29,34.95,2.74-4.45,10.84-15.24,27.76-21.31l.3.83c-21.21,7.6-28.32,22.7-28.39,22.86l0,.07c-1.58,10.56-3.5,22-5.86,34.28,2.69-3.74,10.21-12.2,26.18-17.63l.28.82c-20.55,7-26.83,19-26.89,19.1h0q-2.57,13.18-5.81,27.53c2.29-3,7.5-7.54,19.32-12.71l.35.8C587.47,387.1,583.82,392.76,583,395q-3.75,16.29-8.5,33.91l-.84-.23Q578.2,411.79,581.83,396.06Z" transform="translate(-61.66 -63.38)"/><path class="cls-22" d="M574.64,433.11c-4.8-1.41-10.86-4.77-16.11-7.41a169.91,169.91,0,0,1-30.83-20.14C520.92,400,514,392.24,511,383.85c-1.45-4-2.57-10.54.43-14.18,7.32-8.86,25.76,6.22,30.87,11.41,13.88,14.09,25.61,33.26,32.34,52Z" transform="translate(-61.66 -63.38)"/><path class="cls-27" d="M524.45,368.59l-.38-.23c0,.06-3.8,6.2-3.77,12.17-5.39-6.54-8.6-10.86-8.69-11l-.35.26c.1.14,3.28,4.42,8.62,10.91-6-2.25-9.92-1.6-10.09-1.58l.07.43c.05,0,4.25-.71,10.57,1.82,3.76,4.55,8.55,10.13,14,16.07A56,56,0,0,0,515.34,392l0,.43c.09,0,8.94.47,19.91,5.86h0c4.19,4.51,8.77,9.21,13.62,13.85-11.57-4.56-18.16-4.44-18.23-4.43l0,.43c.06,0,6.93-.13,19,4.79h0c3.79,3.59,7.73,7.12,11.77,10.48-9.17-3.51-13.68-3.91-13.73-3.91l0,.43s4.9.42,14.83,4.36c3.92,3.21,7.92,6.24,12,9l.25-.35c-4-2.75-8-5.78-12-9-3.28-6.49-.45-16.78-.42-16.88L562,407c0,.1-2.68,9.72.07,16.36-4.14-3.43-8.19-7.05-12.06-10.73-3.12-9.81,2.49-19.76,2.56-19.86l-.38-.21c-.06.1-5.5,9.72-2.81,19.48-4.93-4.71-9.59-9.5-13.85-14.08-2.58-6.89,4-19.35,4-19.48l-.38-.2c-.27.5-6.21,11.78-4.35,18.95-5.51-6-10.3-11.56-14.08-16.12C520.47,375.06,524.4,368.65,524.45,368.59Z" transform="translate(-61.66 -63.38)"/><path class="cls-28" d="M535.84,375.47a53.5,53.5,0,0,0-8.5-5.55s14.4,40,42.23,58.77l.24-2.45-14.4-32.73Z" transform="translate(-61.66 -63.38)"/><path class="cls-13" d="M575.17,433.91c-.67-3.29-7.68-9.88-10.06-13a374.7,374.7,0,0,1-21.88-32c-10.85-18-21.82-42.29-20.46-63.8.5-7.95,3.88-21.29,13.86-21.65,7.45-.26,13.16,8,16.51,13.72,8.8,15.1,12.74,32.59,16.15,49.55,3.9,19.49,6,39.49,8.21,59.31Z" transform="translate(-61.66 -63.38)"/><path class="cls-27" d="M566.19,407.05c.18-17.44,5.52-28.79,5.57-28.9l-.58-.28c0,.11-5.14,10.95-5.6,27.71-2.94-7.14-5.62-14-8.07-20.58,2.53-23.58,9-31.85,9.07-31.93l-.49-.4c-.27.33-6.43,8.18-9.08,31-3.21-8.69-6-16.83-8.45-24.34,1.4-21.57,9.61-32.31,9.69-32.41l-.5-.39c-.08.1-8,10.46-9.71,31.2-3-9.33-5.4-17.66-7.31-24.82-.8-16.64,5.84-24.68,5.91-24.75l-.49-.42c-.07.08-6.15,7.43-6.13,22.53-4.36-16.6-5.91-26.22-5.95-26.45l-.63.1c0,.23,1.7,10.49,6.4,28.13-2.49-2.46-10.16-9.61-16.63-10.87l-.12.62c7.39,1.44,16.79,11.2,17.08,11.5,1.91,7.12,4.31,15.39,7.28,24.66-2.51-2.88-9.63-9.68-22.55-12l-.11.63C541,349.51,547.9,359.53,548,359.64l0,0c2.41,7.42,5.17,15.44,8.33,24-2.38-2.38-8.81-7.56-21-9.56l-.1.62c15.63,2.58,21.59,10.45,21.65,10.53h0q3.44,9.18,7.48,19.12c-2-1.9-6.3-4.52-15.43-6.83l-.15.62c12.23,3.09,15.53,6.72,16.42,8.25q4.65,11.28,10.18,23.39l.58-.27C572.46,421.81,569.2,414.29,566.19,407.05Z" transform="translate(-61.66 -63.38)"/><rect class="cls-11" x="476.89" y="364.99" width="75.48" height="9.63" rx="2"/><g class="cls-9"><path class="cls-10" d="M511.75,437.91c0,4,29.45,7.39,65.76,7.44s65.74-3.2,65.73-7.25-29.45-7.39-65.76-7.44S511.74,433.85,511.75,437.91Z" transform="translate(-61.66 -63.38)"/></g></g></g></svg>